<svg width="512" height="487" viewBox="0 0 512 487" fill="none" xmlns="http://www.w3.org/2000/svg">
<g clip-path="url(#clip0)">
<path d="M2.9671 440.527C4.32213 441.555 5.91518 442.051 7.49422 442.051C8.40524 442.051 9.30927 441.878 10.1643 441.554L17.7355 460.306C14.7124 461.274 12.5234 464.104 12.5234 467.448C12.5234 471.592 15.8804 474.949 20.0236 474.949L491.976 474.949C496.12 474.949 499.477 471.592 499.477 467.448C499.477 464.103 497.287 461.273 494.263 460.306L501.835 441.554C502.69 441.878 503.594 442.051 504.506 442.051C506.085 442.051 507.678 441.554 509.033 440.527C512.333 438.023 512.978 433.318 510.475 430.017L507.85 426.557C508.941 422.893 507.086 418.932 503.469 417.472C502.509 417.084 501.516 416.909 500.543 416.925L278.1 123.709C275.272 119.168 272.178 112.978 263.499 110.01L263.499 102.406L263.499 74.3197C263.499 70.1776 260.142 66.8195 255.999 66.8195C251.856 66.8195 248.499 70.1776 248.499 74.3197L248.499 102.406L248.499 110.011C239.924 112.944 236.839 118.989 233.9 123.709L11.4573 416.926C10.4833 416.91 9.49127 417.085 8.53125 417.472C4.91415 418.932 3.0591 422.894 4.15013 426.558L1.52506 430.017C-0.978012 433.318 -0.332994 438.023 2.9671 440.527V440.527ZM248.5 273.758L204.74 273.758C191.586 273.758 180.885 284.459 180.885 297.613L180.885 459.948L42.2132 459.948L248.499 128.644C248.5 130.676 248.5 251.804 248.5 273.758V273.758ZM195.884 297.613C195.884 292.73 199.856 288.759 204.739 288.759L248.499 288.759L248.499 459.949L195.884 459.949L195.884 297.613ZM331.116 459.948L331.116 396.886C331.116 392.742 327.759 389.385 323.616 389.385C319.473 389.385 316.116 392.742 316.116 396.886L316.116 459.948L263.5 459.948L263.5 288.759L307.261 288.759C312.145 288.759 316.116 292.731 316.116 297.613L316.116 361.886C316.116 366.029 319.473 369.386 323.616 369.386C327.759 369.386 331.116 366.029 331.116 361.886L331.116 297.613C331.116 284.459 320.415 273.758 307.261 273.758L263.5 273.758C263.5 268.527 263.5 137.696 263.5 128.643L469.787 459.949L331.116 459.949L331.116 459.948ZM490.778 428.874L481.861 450.96L364.314 262.174L490.778 428.874ZM30.1398 450.961L21.2226 428.873L147.688 262.171L30.1398 450.961Z" fill="#6D41E9"/>
<path d="M436.479 32.9356C432.336 32.9356 428.979 36.2936 428.979 40.4356L428.979 41.9056L427.509 41.9056C423.366 41.9056 420.009 45.2636 420.009 49.4056C420.009 53.5476 423.366 56.9056 427.509 56.9056L428.979 56.9056L428.979 58.3756C428.979 62.5176 432.336 65.8756 436.479 65.8756C440.622 65.8756 443.979 62.5176 443.979 58.3756L443.979 56.9056L445.449 56.9056C449.592 56.9056 452.949 53.5476 452.949 49.4056C452.949 45.2636 449.592 41.9056 445.449 41.9056L443.979 41.9056L443.979 40.4356C443.979 36.2936 440.622 32.9356 436.479 32.9356Z" fill="#6D41E9"/>
<path d="M401.721 -12.9487C397.578 -12.9487 394.221 -9.59057 394.221 -5.44846L394.221 0.333701L388.439 0.333701C384.296 0.333701 380.938 3.69179 380.938 7.83391C380.938 11.976 384.296 15.3341 388.439 15.3341L394.221 15.3341L394.221 21.1163C394.221 25.2584 397.578 28.6165 401.721 28.6165C405.864 28.6165 409.221 25.2584 409.221 21.1163L409.221 15.3341L415.003 15.3341C419.146 15.3341 422.504 11.976 422.504 7.83391C422.504 3.69179 419.146 0.333701 415.003 0.333701L409.221 0.333701L409.221 -5.44846C409.221 -9.59057 405.864 -12.9487 401.721 -12.9487V-12.9487Z" fill="#6D41E9"/>
<path d="M355.7 26.2054C332.886 38.0307 318.803 62.2684 319.823 87.9541C321.191 122.426 349.27 150.428 383.748 151.703C406.024 152.539 427.243 142.221 440.34 123.93C446.02 115.999 439.034 105.151 429.456 107.059C417.099 109.515 404.899 107.565 394.169 101.427C390.572 99.3694 385.991 100.618 383.934 104.215C381.878 107.81 383.125 112.392 386.722 114.449C397.375 120.543 409.129 123.45 421.209 123.065C411.302 132.235 398.111 137.231 384.303 136.713C357.611 135.726 335.87 114.047 334.812 87.3601C334.162 70.9876 341.43 55.3762 353.872 45.2549C351.458 58.9893 353.445 73.0427 359.735 85.754C361.571 89.4661 366.069 90.9862 369.783 89.1501C373.496 87.3131 375.016 82.814 373.179 79.1019C367.034 66.6845 366.211 52.5981 370.861 39.4388C374.129 30.1885 364.416 21.6843 355.7 26.2054V26.2054Z" fill="#6D41E9"/>
</g>
<defs>
<clipPath id="clip0">
<rect width="512" height="512" fill="white" transform="translate(0 -25)"/>
</clipPath>
</defs>
</svg>
