<svg width="513" height="513" viewBox="0 0 513 513" fill="none" xmlns="http://www.w3.org/2000/svg">
<g clip-path="url(#clip0)">
<path d="M492.638 416.168C457.193 386.533 352.943 299.12 305.138 256.484C331.017 232.763 367.25 197.485 402.492 163.157C442.836 123.855 480.95 86.74 498.221 72.157C506.981 64.772 512.002 53.917 512.002 42.376C512.002 27.938 504.492 15.136 491.908 8.13602C479.387 1.17802 464.648 1.52102 452.47 9.08402C413.157 33.469 256.001 146.334 256.001 170.667C256.001 177.845 255.708 186.288 253.151 195.87C241.4 175.718 234.668 157.255 234.668 149.334C234.668 134.157 183.095 84.719 81.376 2.37602C77.157 -1.05098 70.991 -0.738976 67.126 3.12602L3.12598 67.126C-0.739017 70.98 -1.06202 77.136 2.37598 81.376C84.72 183.095 134.157 234.668 149.334 234.668C158.39 234.668 181.157 243.428 204.561 258.52C157.266 300.56 60.87 381.466 19.388 416.147C7.06598 426.449 0.00298306 441.605 0.00298306 457.73C0.00298305 487.657 24.347 512.001 54.274 512.001C70.389 512.001 85.555 504.928 95.857 492.595C131.502 449.982 214.863 350.661 256.008 304.601C298.464 352.154 386.425 457.057 416.18 492.636C426.472 504.949 441.628 512.001 457.732 512.001C487.659 512.001 512.003 487.657 512.003 457.73C512.003 441.626 504.951 426.47 492.638 416.168ZM277.336 172.543C288.555 155.022 398.69 67.553 463.721 27.21C469.221 23.825 475.888 23.637 481.534 26.772C487.253 29.96 490.669 35.793 490.669 42.376C490.669 47.616 488.409 52.522 484.461 55.855C466.607 70.928 428.232 108.303 387.607 147.876C351.798 182.763 315.005 218.575 289.309 242.043C287.705 240.525 286.054 238.969 284.878 237.793C278.551 231.466 272.87 224.566 267.599 217.553C276.351 199.191 277.309 183.556 277.336 172.543ZM79.493 478.907C73.253 486.386 64.055 490.667 54.274 490.667C36.107 490.667 21.336 475.896 21.336 457.729C21.336 447.937 25.617 438.75 33.076 432.521C75.701 396.87 176.18 312.53 222.33 271.261C227.671 275.524 232.912 279.993 237.795 284.876C238.831 285.912 240.238 287.411 241.541 288.781C200.651 334.428 115.631 435.712 79.493 478.907ZM457.732 490.668C447.951 490.668 438.774 486.397 432.544 478.949C387.284 424.824 279.179 296.095 252.877 269.793C220.731 237.647 172.075 213.585 151.46 213.585C151.356 213.585 151.241 213.595 151.137 213.595C138.574 208.71 78.335 140.814 25.012 75.407L32.002 68.417L131.127 167.542C133.21 169.625 135.94 170.667 138.669 170.667C141.398 170.667 144.127 169.625 146.211 167.542C150.378 163.375 150.378 156.625 146.211 152.459L47.086 53.334L53.336 47.084L152.461 146.209C154.544 148.292 157.274 149.334 160.003 149.334C162.732 149.334 165.461 148.292 167.545 146.209C171.712 142.042 171.712 135.292 167.545 131.126L68.42 32.001L75.41 25.011C140.816 78.334 208.702 138.501 213.337 149.334C213.337 171.563 237.483 220.563 269.795 252.876C296.097 279.178 424.826 387.282 478.951 432.532C486.399 438.772 490.67 447.949 490.67 457.73C490.67 475.897 475.899 490.668 457.732 490.668Z" fill="#6D41E9"/>
</g>
<defs>
<clipPath id="clip0">
<rect width="512.003" height="512.003" fill="white"/>
</clipPath>
</defs>
</svg>
