<svg width="512" height="512" viewBox="0 0 512 512" fill="none" xmlns="http://www.w3.org/2000/svg">
<path d="M398.56 179.76C399.486 173.213 399.967 166.612 400 160C400 121.809 384.829 85.1819 357.823 58.1766C330.818 31.1714 294.191 16 256 16C217.809 16 181.182 31.1714 154.177 58.1766C127.171 85.1819 112 121.809 112 160C112.033 166.612 112.514 173.213 113.44 179.76C86.4552 186.377 62.3587 201.601 44.7942 223.128C27.2296 244.656 17.1522 271.318 16.0858 299.082C15.0193 326.846 23.0218 354.202 38.8832 377.013C54.7446 399.825 77.6023 416.852 104 425.52V456C104 458.122 104.843 460.157 106.343 461.657C107.843 463.157 109.878 464 112 464V488C112 490.122 112.843 492.157 114.343 493.657C115.843 495.157 117.878 496 120 496H168C170.122 496 172.157 495.157 173.657 493.657C175.157 492.157 176 490.122 176 488V464C178.122 464 180.157 463.157 181.657 461.657C183.157 460.157 184 458.122 184 456V425.52C198.54 420.672 212.089 413.247 224 403.6V488C224 490.122 224.843 492.157 226.343 493.657C227.843 495.157 229.878 496 232 496H280C282.122 496 284.157 495.157 285.657 493.657C287.157 492.157 288 490.122 288 488V403.6C299.911 413.247 313.46 420.672 328 425.52V456C328 458.122 328.843 460.157 330.343 461.657C331.843 463.157 333.878 464 336 464V488C336 490.122 336.843 492.157 338.343 493.657C339.843 495.157 341.878 496 344 496H392C394.122 496 396.157 495.157 397.657 493.657C399.157 492.157 400 490.122 400 488V464C402.122 464 404.157 463.157 405.657 461.657C407.157 460.157 408 458.122 408 456V425.52C434.398 416.852 457.255 399.825 473.117 377.013C488.978 354.202 496.981 326.846 495.914 299.082C494.848 271.318 484.77 244.656 467.206 223.128C449.641 201.601 425.545 186.377 398.56 179.76V179.76ZM256 32C281.623 32.0247 306.65 39.7317 327.848 54.1254C349.046 68.5192 365.441 88.9384 374.916 112.745C384.391 136.552 386.509 162.653 380.998 187.677C375.487 212.7 362.599 235.496 344 253.12V232C343.981 225.641 341.446 219.547 336.95 215.05C332.453 210.554 326.359 208.019 320 208H280V193.52C287.29 189.311 293.344 183.26 297.557 175.972C301.769 168.685 303.991 160.417 304 152V144H308C312.953 143.985 317.724 142.133 321.39 138.802C325.056 135.472 327.355 130.899 327.843 125.97C328.331 121.041 326.973 116.107 324.031 112.122C321.09 108.137 316.774 105.386 311.92 104.4C311.92 104.24 312 104.16 312 104V80C311.981 73.6406 309.446 67.5472 304.95 63.0504C300.453 58.5537 294.359 56.019 288 56H233.28L210.56 48.4C209.357 48.0033 208.077 47.898 206.825 48.0927C205.573 48.2874 204.386 48.7766 203.36 49.52C202.318 50.2481 201.468 51.218 200.883 52.3465C200.297 53.4751 199.995 54.7287 200 56V104C200 104.16 200.08 104.24 200.08 104.4C195.226 105.386 190.91 108.137 187.969 112.122C185.027 116.107 183.669 121.041 184.157 125.97C184.645 130.899 186.944 135.472 190.61 138.802C194.276 142.133 199.047 143.985 204 144H208V152C208.009 160.417 210.231 168.685 214.443 175.972C218.655 183.26 224.71 189.311 232 193.52V208H192C185.641 208.019 179.547 210.554 175.05 215.05C170.554 219.547 168.019 225.641 168 232V253.12C149.401 235.496 136.513 212.7 131.002 187.677C125.491 162.653 127.609 136.552 137.084 112.745C146.558 88.9384 162.954 68.5192 184.152 54.1254C205.35 39.7317 230.377 32.0247 256 32V32ZM192 304C197.937 304.029 203.646 306.284 208 310.32V344C208 346.122 208.843 348.157 210.343 349.657C211.843 351.157 213.878 352 216 352V360H72V328C72.019 321.641 74.5536 315.547 79.0504 311.05C83.5472 306.554 89.6406 304.019 96 304H192ZM112 256C112.022 250.233 113.602 244.579 116.574 239.636C119.545 234.693 123.797 230.645 128.88 227.92C138.765 246.466 152.613 262.609 169.44 275.2C165.424 280.571 159.816 284.54 153.415 286.541C147.014 288.543 140.145 288.476 133.784 286.35C127.423 284.224 121.895 280.146 117.984 274.698C114.073 269.249 111.979 262.707 112 256V256ZM179.68 288C180.8 286.8 181.76 285.44 182.8 284.08C185.12 285.44 187.52 286.72 189.92 288H179.68ZM184 265.92V232C184 229.878 184.843 227.843 186.343 226.343C187.843 224.843 189.878 224 192 224H225.12C226.867 230.865 230.851 236.951 236.443 241.299C242.035 245.646 248.917 248.007 256 248.007C263.083 248.007 269.965 245.646 275.557 241.299C281.149 236.951 285.133 230.865 286.88 224H320C322.122 224 324.157 224.843 325.657 226.343C327.157 227.843 328 229.878 328 232V265.92C317.443 273.089 305.876 278.643 293.68 282.4C269.111 289.84 242.889 289.84 218.32 282.4C206.124 278.643 194.557 273.089 184 265.92V265.92ZM224 112H288V152C288 160.487 284.629 168.626 278.627 174.627C272.626 180.629 264.487 184 256 184C247.513 184 239.374 180.629 233.373 174.627C227.371 168.626 224 160.487 224 152V112ZM216 96V67.12L229.44 71.6C230.271 71.8499 231.132 71.9845 232 72H288C290.122 72 292.157 72.8429 293.657 74.3431C295.157 75.8434 296 77.8783 296 80V96H216ZM269.84 224C268.433 226.425 266.415 228.437 263.986 229.836C261.557 231.235 258.803 231.972 256 231.972C253.197 231.972 250.443 231.235 248.014 229.836C245.585 228.437 243.566 226.425 242.16 224H269.84ZM248 208V199.28C253.29 200.24 258.71 200.24 264 199.28V208H248ZM329.2 284.08C330.24 285.44 331.2 286.8 332.32 288H322.08C324.48 286.72 326.88 285.44 329.2 284.08ZM296 352C298.122 352 300.157 351.157 301.657 349.657C303.157 348.157 304 346.122 304 344V310.32C308.354 306.284 314.063 304.029 320 304H416C422.359 304.019 428.453 306.554 432.95 311.05C437.446 315.547 439.981 321.641 440 328V360H296V352ZM368 288C363.058 287.983 358.187 286.817 353.773 284.596C349.358 282.375 345.519 279.158 342.56 275.2C359.387 262.609 373.235 246.466 383.12 227.92C389.406 231.275 394.389 236.637 397.275 243.152C400.161 249.667 400.784 256.96 399.045 263.87C397.306 270.78 393.305 276.91 387.679 281.283C382.053 285.656 375.125 288.02 368 288V288ZM304 128V120H308C309.061 120 310.078 120.421 310.828 121.172C311.579 121.922 312 122.939 312 124C312 125.061 311.579 126.078 310.828 126.828C310.078 127.579 309.061 128 308 128H304ZM208 120V128H204C202.939 128 201.922 127.579 201.172 126.828C200.421 126.078 200 125.061 200 124C200 122.939 200.421 121.922 201.172 121.172C201.922 120.421 202.939 120 204 120H208ZM160 480H128V464H160V480ZM168 448H120V429.68C127.912 431.188 135.946 431.965 144 432C152.058 431.966 160.095 431.163 168 429.6V448ZM224 382.08C211.933 394.459 197.162 403.874 180.846 409.586C164.53 415.298 147.112 417.151 129.959 415C112.806 412.85 96.3843 406.754 81.983 397.191C67.5817 387.627 55.5922 374.857 46.9552 359.882C38.3183 344.907 33.2687 328.135 32.2028 310.88C31.1369 293.626 34.0836 276.359 40.8118 260.435C47.5399 244.511 57.8665 230.362 70.9812 219.099C84.096 207.836 99.6421 199.765 116.4 195.52C117.957 201.578 119.881 207.535 122.16 213.36C115.612 216.682 109.918 221.469 105.52 227.348C101.122 233.227 98.1372 240.041 96.7986 247.261C95.46 254.48 95.803 261.911 97.8011 268.976C99.7992 276.041 103.399 282.551 108.32 288H96C85.3913 288 75.2172 292.214 67.7157 299.716C60.2142 307.217 56 317.391 56 328V368C56 370.122 56.8428 372.157 58.3431 373.657C59.8434 375.157 61.8782 376 64 376H224V382.08ZM272 480H240V352H272V480ZM224 336V300.48C234.507 302.813 245.237 303.994 256 304H263.68V303.6C271.856 303.201 279.988 302.158 288 300.48V336H224ZM384 480H352V464H384V480ZM392 448H344V429.6C351.905 431.163 359.942 431.966 368 432C376.054 431.965 384.088 431.188 392 429.68V448ZM368 416C353.076 415.972 338.309 412.956 324.569 407.131C310.83 401.305 298.396 392.787 288 382.08V376H448C450.122 376 452.157 375.157 453.657 373.657C455.157 372.157 456 370.122 456 368V328C456 317.391 451.786 307.217 444.284 299.716C436.783 292.214 426.609 288 416 288H403.68C408.601 282.551 412.201 276.041 414.199 268.976C416.197 261.911 416.54 254.48 415.201 247.261C413.863 240.041 410.878 233.227 406.48 227.348C402.082 221.469 396.388 216.682 389.84 213.36C392.119 207.535 394.043 201.578 395.6 195.52C421.994 202.298 445.012 218.466 460.341 240.996C475.671 263.526 482.26 290.872 478.875 317.912C475.491 344.952 462.364 369.83 441.953 387.886C421.543 405.942 395.251 415.937 368 416V416Z" fill="#6D41E9"/>
</svg>
