<svg width="512" height="322" viewBox="0 0 512 322" fill="none" xmlns="http://www.w3.org/2000/svg">
<path d="M446.5 114H438.43C445.016 105.415 448.943 94.688 448.943 83.057V68.944C448.943 40.853 426.09 18 398 18C369.91 18 347.057 40.853 347.057 68.943V79.914L271.826 4.68199C267.651 0.507991 261.511 -0.832012 256.001 1.15799C250.493 -0.832012 244.351 0.507982 240.175 4.68298L164.945 79.914V68.943C164.943 40.853 142.09 18 114 18C85.91 18 63.057 40.853 63.057 68.943V83.056C63.057 94.688 66.984 105.414 73.57 113.999H65.5C29.383 114 0 143.383 0 179.5V312C0 317.523 4.478 322 10 322H52.25C53.25 322 54.214 321.849 55.125 321.576C56.036 321.849 57 322 58 322H170C175.522 322 180 317.523 180 312V278C180 272.477 175.522 268 170 268C164.478 268 160 272.477 160 278V302H68V188.053C68 182.53 63.522 178.053 58 178.053C52.478 178.053 48 182.53 48 188.053V302H20V179.5C20 154.411 40.411 134 65.5 134H135C137.752 134 140.244 132.887 142.052 131.089C142.059 131.082 142.065 131.078 142.072 131.072L245.941 27.202C245.26 47.97 238.8 67.973 227.154 85.27L161.706 182.468C160.595 184.119 160.001 186.064 160.001 188.053V199C160.001 204.523 164.479 209 170.001 209C175.523 209 180.001 204.523 180.001 199V191.105L243.744 96.439C248.614 89.206 252.698 81.564 256.001 73.631C259.304 81.564 263.387 89.206 268.258 96.439L332 191.105V312C332 317.523 336.478 322 342 322H454C455 322 455.964 321.849 456.875 321.576C457.786 321.849 458.75 322 459.75 322H502C507.522 322 512 317.523 512 312V179.5C512 143.383 482.617 114 446.5 114ZM144.943 83.056C144.943 100.119 131.063 114 114 114C96.937 114 83.057 100.119 83.057 83.057V68.944C83.057 51.881 96.938 38 114 38C131.062 38 144.943 51.881 144.943 68.943V83.056ZM367.057 68.943C367.057 51.881 380.938 38 398 38C415.062 38 428.943 51.881 428.943 68.943V83.056C428.943 100.119 415.063 114 398 114C380.937 114 367.057 100.119 367.057 83.057V68.943ZM492 302H464V228C464 222.477 459.522 218 454 218C448.478 218 444 222.477 444 228V302H352V188.053C352 186.063 351.406 184.118 350.295 182.468L284.847 85.271C273.201 67.974 266.741 47.971 266.06 27.203L369.929 131.072C370.061 131.204 370.185 131.315 370.305 131.414C372.078 133.017 374.422 134.002 377 134.002H446.5C471.589 134.002 492 154.413 492 179.502V302V302Z" fill="#6D41E9"/>
</svg>
