<svg width="490" height="490" viewBox="0 0 490 490" fill="none" xmlns="http://www.w3.org/2000/svg">
<g clip-path="url(#clip0)">
<path d="M483.847 259.761L445.85 275.759C445.104 276.08 444.409 276.509 443.788 277.033L392.495 320.533L391.593 318.342C386.629 306.448 373.329 300.406 361.107 304.495L355.506 306.382L351.362 302.191L331.805 269.6L354.323 166.799L365.947 160.976C373.095 157.374 377.403 149.855 376.903 141.868C376.403 133.876 371.185 126.959 363.642 124.276L368.443 102.367C369.239 98.1136 366.517 93.9967 362.291 93.0749C358.061 92.1492 353.866 94.7545 352.819 98.9495L346.94 125.771L285.289 156.64L262.092 136.747L262.451 134.7C263.791 126.553 262.264 118.194 258.131 111.046C271.853 110.097 284.34 102.769 291.851 91.2431C299.362 79.7206 301.03 65.3389 296.359 52.4025L324.532 38.3372C328.504 36.3686 330.129 31.5526 328.157 27.5803C326.188 23.6079 321.368 21.987 317.4 23.9556L288.297 38.5052C272.896 20.4051 245.89 17.8272 227.345 32.6892C208.795 47.5513 205.425 74.4671 219.736 93.446C217.369 93.9225 215.061 94.6373 212.838 95.5825L213.967 89.6143C214.615 86.1771 213.838 82.6227 211.811 79.7713C209.784 76.9161 206.682 75.0139 203.222 74.4944L166.108 68.9988C155.151 67.3114 144.867 74.7249 143.012 85.6537L133.677 138.642L123.455 136.45C119.037 135.505 114.424 136.368 110.651 138.852C106.878 141.337 104.257 145.235 103.382 149.664L95.6641 188.782C94.7774 193.289 95.7656 197.961 98.4021 201.718C101.039 205.48 105.093 207.999 109.632 208.702L129.095 211.71L129.204 211.71L174.29 217.764L173.857 219.045C170.088 230.212 172.998 242.551 181.36 250.859C181.618 251.113 181.923 251.304 182.161 251.554L200.976 304.819L161.956 364.119L141.867 387.926C140.289 389.793 139.653 392.277 140.133 394.675C140.617 397.07 142.168 399.112 144.348 400.222L183.016 419.931L165.756 430.333L7.52707e-06 451.128L1.98422 467.001L169.428 446.003C170.541 445.866 171.615 445.495 172.572 444.906L279.458 380.309L335.598 359.624L391.199 339.137L396.952 337.02C397.827 336.692 398.639 336.215 399.35 335.61L453.131 290.016L489.999 274.498L483.847 259.761ZM355.85 323.13L366.251 319.635C370.493 318.225 375.11 320.314 376.848 324.435L377.922 327.021L338.566 341.531L337.363 341.969L330.875 326.138L343.949 317.428L347.644 321.174C349.784 323.333 352.963 324.091 355.85 323.13V323.13ZM202.03 243.938C197.441 243.524 193.289 241.032 190.77 237.173C188.246 233.313 187.625 228.513 189.09 224.138L190.746 219.139L239.852 219.139L291.738 233.97L314.791 272.369L310.607 291.445L287.754 254.898C286.434 252.765 284.192 251.375 281.696 251.136L202.03 243.938ZM234.247 203.14L194.41 203.14L198.121 180.599L200.738 180.369C214.17 179.142 227.302 175.674 239.59 170.104L239.957 170.424L234.247 203.14ZM200.823 164.225L205.542 135.587C206.468 139.755 208.71 143.516 211.944 146.305L226.021 158.417C217.892 161.382 209.428 163.331 200.823 164.225ZM322.31 347.531L314.037 350.577L317.357 335.426L322.31 347.531ZM334.18 304.733L326.981 309.534L323.38 311.932L322.735 310.893L326.782 292.406L334.18 304.733ZM319.783 249.632L303.823 223.045C302.78 221.303 301.112 220.026 299.159 219.467L250.093 205.421L254.093 182.575L269.291 195.645C275.407 200.902 284.078 201.972 291.289 198.359L335.934 176.01L319.783 249.632ZM355.162 139.556C356.115 139.071 357.221 138.993 358.236 139.329C359.236 139.661 360.064 140.384 360.529 141.329C361.517 143.297 360.728 145.696 358.764 146.692L284.082 184.087C282.637 184.782 280.922 184.564 279.696 183.536L246.171 154.664L222.388 134.204C221.166 133.146 220.701 131.459 221.205 129.923C221.712 128.388 223.091 127.31 224.7 127.189L224.997 127.189C225.954 127.189 226.88 127.533 227.606 128.154L282.922 175.752L355.162 139.556ZM282.969 67.1513C283.012 79.1659 275.364 89.8564 263.982 93.6999C252.6 97.5433 240.039 93.6725 232.79 84.0952L281.77 59.6245C282.516 62.0658 282.918 64.6007 282.969 67.1513ZM254.971 39.1536C261.686 39.1809 268.162 41.6377 273.2 46.0749L227.149 69.0652C227.149 68.4246 226.958 67.8153 226.958 67.1669C226.974 51.715 239.492 39.1848 254.948 39.1536L254.971 39.1536ZM230.302 108.956C237.805 110.148 243.941 115.581 246.035 122.885L238.035 116.003C229.868 108.945 217.564 109.687 210.303 117.678C214.623 111.031 222.49 107.601 230.302 108.956ZM111.382 191.887L119.104 152.761L111.249 151.219L120.119 152.09L130.899 154.402L123.806 194.703L112.089 192.895L111.382 191.887ZM158.772 88.4308C159.21 86.0911 161.405 84.5092 163.764 84.8295L197.64 89.8486L191.48 122.51L191.48 122.686L178.345 202.183L139.645 196.981L158.772 88.4308ZM217.463 303.261L202.191 260.011L230.766 262.608L237.285 305.206L190.688 373.279L179.642 366.471L216.592 310.315C217.967 308.229 218.291 305.62 217.463 303.261V303.261ZM199.136 410.221L160.612 390.59L170.084 379.391L188.778 390.918C189.406 391.301 190.09 391.597 190.801 391.797C191.504 392 192.234 392.101 192.969 392.101L193.894 392.101C201.167 392.117 207.526 396.992 209.432 404.007L206.967 405.495L199.136 410.221ZM273.2 365.623C272.724 365.799 272.263 366.021 271.825 366.287L223.372 395.582C220.095 387.977 214.01 381.934 206.382 378.704L252.292 311.635C253.44 309.963 253.909 307.913 253.597 305.909L247.195 264.096L276.313 266.744L305.737 313.819L296.249 357.135L273.2 365.623Z" fill="#6D41E9"/>
</g>
<defs>
<clipPath id="clip0">
<rect width="490" height="490" fill="white"/>
</clipPath>
</defs>
</svg>
