<svg width="512" height="512" viewBox="0 0 512 512" fill="none" xmlns="http://www.w3.org/2000/svg">
<g clip-path="url(#clip0)">
<path d="M256.521 405.61C257.968 404.567 259.699 403.18 260.969 401.911L308.476 354.402C313.487 349.392 316.247 342.73 316.247 335.645C316.247 328.56 313.487 321.897 308.477 316.887L298.947 307.356C293.677 302.086 286.723 299.508 279.801 299.609C279.803 299.475 279.811 299.341 279.811 299.206C279.811 292.121 277.051 285.459 272.041 280.449L262.511 270.919C257.36 265.769 250.38 263.097 243.347 263.187C243.445 256.175 240.787 249.195 235.603 244.011L226.074 234.481C221.064 229.471 214.402 226.711 207.317 226.711C207.186 226.711 207.057 226.719 206.927 226.721C206.929 226.591 206.937 226.461 206.937 226.331C206.937 219.246 204.177 212.584 199.167 207.574L189.637 198.044C184.627 193.034 177.965 190.274 170.879 190.274C163.794 190.274 157.132 193.033 152.122 198.044L86.9062 263.259C83.9772 266.188 83.9772 270.937 86.9062 273.865C88.3712 275.329 90.2912 276.062 92.2103 276.062C94.1293 276.062 96.0493 275.33 97.5143 273.865L104.526 266.853C105.82 273.164 108.923 278.965 113.584 283.626C119.052 289.094 126.089 292.421 133.679 293.193C128.925 305.165 131.38 319.36 141.052 329.033C146.126 334.107 152.447 337.187 159.036 338.291C153.364 347.746 152.74 359.495 157.419 369.494C147.162 374.812 138.394 382.93 132.135 393.28C129.99 396.824 131.126 401.436 134.67 403.58C138.212 405.722 142.825 404.588 144.969 401.044C153.942 386.209 169.635 377.352 186.949 377.352H196.303C200.446 377.352 203.803 373.994 203.803 369.852V311.824C203.803 295.11 217.401 281.512 234.115 281.512C236.722 281.512 238.891 283.537 239.077 286.132L243.33 386.583C243.747 396.448 241.688 406.357 237.376 415.237L222.413 446.055C218.799 453.5 212.517 459.141 204.728 461.939L186.723 468.407C178.395 471.398 169.686 472.914 160.839 472.914H113.494C109.35 472.914 105.993 476.273 105.993 480.415C105.993 484.54 109.324 487.885 113.443 487.912L102.159 499.195C99.2304 502.124 99.2304 506.873 102.159 509.801C103.624 511.265 105.544 511.998 107.463 511.998C109.382 511.998 111.303 511.266 112.768 509.801L134.655 487.914H160.84C171.42 487.914 181.834 486.101 191.794 482.524L209.799 476.056C221.299 471.924 230.57 463.597 235.907 452.605L250.87 421.787C253.371 416.629 255.259 411.19 256.521 405.61V405.61ZM264.81 299.207C264.81 302.282 263.613 305.174 261.44 307.35C261.438 307.352 261.435 307.354 261.433 307.357L255.246 313.543L254.055 285.414C254.053 285.369 254.051 285.323 254.048 285.277C254.011 284.668 253.941 284.068 253.85 283.475L261.434 291.057C263.611 293.234 264.81 296.128 264.81 299.207V299.207ZM118.839 260.107C118.839 255.228 120.738 250.641 124.189 247.191L162.728 208.652C164.905 206.475 167.799 205.276 170.877 205.276C173.956 205.276 176.851 206.475 179.027 208.652L188.558 218.182C190.735 220.359 191.934 223.253 191.934 226.332C191.934 229.409 190.736 232.302 188.561 234.479C188.56 234.48 188.558 234.481 188.557 234.483L150.022 273.018C150.02 273.02 150.019 273.021 150.017 273.023C146.568 276.473 141.981 278.373 137.102 278.373C132.224 278.373 127.637 276.473 124.188 273.023C120.739 269.572 118.839 264.986 118.839 260.107V260.107ZM186.946 362.354C181.672 362.354 176.516 362.991 171.557 364.201C167.699 357.203 168.818 348.31 174.64 342.489L188.799 328.33V362.353H186.946V362.354ZM189.08 306.835L177.488 318.426C177.487 318.427 177.486 318.427 177.486 318.428C170.367 325.549 158.778 325.55 151.657 318.428C144.535 311.306 144.535 299.719 151.657 292.597L199.165 245.088C201.343 242.911 204.237 241.712 207.316 241.712C210.394 241.712 213.289 242.911 215.466 245.088L224.995 254.619C228.261 257.885 229.219 262.783 227.566 266.991C207.295 269.938 191.335 286.35 189.08 306.835ZM297.869 343.795L258.207 383.458L256.108 333.89C256.132 333.867 256.157 333.848 256.181 333.825L272.039 317.965C276.534 313.47 283.847 313.47 288.34 317.965L297.87 327.496C300.047 329.673 301.246 332.568 301.246 335.646C301.246 338.723 300.047 341.617 297.869 343.795V343.795Z" fill="#6D41E9"/>
<path d="M61.8298 288.367C46.7306 303.824 37.1765 323.289 34.1965 344.661L30.5424 370.892L2.19702 399.237C-0.732016 402.167 -0.732016 406.916 2.19702 409.844C3.66204 411.309 5.58107 412.041 7.5011 412.041C9.42012 412.041 11.3402 411.309 12.8052 409.844L42.9286 379.72C44.0816 378.566 44.8276 377.068 45.0536 375.452L49.0547 346.731C51.5887 328.555 59.7168 311.997 72.562 298.848C75.457 295.885 75.401 291.137 72.438 288.242C69.4719 285.347 64.7249 285.404 61.8298 288.367V288.367Z" fill="#6D41E9"/>
<path d="M414.809 237.571C406.037 241.746 396.284 243.738 386.583 243.325L286.131 239.072C283.537 238.886 281.513 236.717 281.513 234.11C281.513 217.396 295.111 203.798 311.825 203.798H369.854C371.843 203.798 373.75 203.008 375.158 201.601C376.564 200.195 377.354 198.287 377.354 196.298V186.944C377.354 169.63 386.21 153.938 401.045 144.965C404.59 142.821 405.726 138.21 403.582 134.666C401.436 131.121 396.824 129.987 393.281 132.13C382.932 138.39 374.814 147.157 369.496 157.414C359.503 152.738 347.763 153.358 338.311 159.02C337.18 152.245 333.99 146.001 329.034 141.047C319.357 131.371 305.153 128.918 293.177 133.681C292.424 126.336 289.245 119.195 283.629 113.579C278.968 108.918 273.167 105.814 266.856 104.52L298.127 73.25C311.183 60.1939 328.444 51.6007 346.732 49.0517L375.453 45.0497C377.069 44.8247 378.567 44.0786 379.722 42.9246L409.845 12.8012C412.774 9.87218 412.774 5.12311 409.845 2.19507C406.915 -0.733969 402.166 -0.733969 399.237 2.19507L370.893 30.5405L344.663 34.1955C323.163 37.1916 302.87 47.2947 287.52 62.6439L198.046 152.118C192.097 158.066 189.317 166.6 190.611 174.948C191.184 178.652 194.378 181.302 198.013 181.302C198.394 181.302 198.782 181.273 199.17 181.213C203.263 180.579 206.067 176.745 205.433 172.652C204.862 168.961 206.035 165.343 208.652 162.726L247.191 124.187C250.64 120.737 255.227 118.837 260.107 118.837C264.986 118.837 269.573 120.737 273.022 124.187C280.144 131.309 280.144 142.895 273.022 150.017C273.022 150.017 273.022 150.018 273.021 150.018L234.487 188.553C234.485 188.555 234.484 188.556 234.482 188.558C231.788 191.253 227.936 192.44 224.175 191.728C220.104 190.957 216.182 193.635 215.412 197.705C214.643 201.775 217.319 205.698 221.39 206.467C223.037 206.778 224.692 206.931 226.335 206.931C226.464 206.931 226.593 206.923 226.721 206.921C226.719 207.052 226.711 207.182 226.711 207.314C226.711 214.399 229.471 221.061 234.481 226.071L244.011 235.601C249.119 240.709 255.922 243.37 262.793 243.369C262.925 243.369 263.058 243.358 263.19 243.356C263.105 250.389 265.781 257.371 270.919 262.508L280.448 272.038C285.458 277.048 292.12 279.808 299.205 279.808C299.336 279.808 299.465 279.8 299.595 279.798C299.593 279.928 299.585 280.058 299.585 280.188C299.585 287.273 302.345 293.935 307.355 298.945L316.885 308.475C321.895 313.485 328.556 316.244 335.643 316.244C342.728 316.244 349.39 313.485 354.4 308.474L401.909 260.966C403.284 259.591 404.534 258.098 405.645 256.513C411.021 255.294 416.265 253.487 421.253 251.112C424.993 249.332 426.582 244.857 424.803 241.117C423.025 237.38 418.549 235.793 414.809 237.571V237.571ZM364.201 171.558C362.991 176.516 362.354 181.673 362.354 186.946V188.8H328.33L342.489 174.641C348.308 168.819 357.202 167.698 364.201 171.558V171.558ZM254.618 224.995L245.088 215.465C242.911 213.288 241.712 210.393 241.712 207.315C241.712 204.237 242.911 201.342 245.089 199.165L292.598 151.656C299.719 144.534 311.305 144.536 318.428 151.656C321.877 155.106 323.778 159.693 323.778 164.572C323.778 169.448 321.879 174.032 318.433 177.482L307.357 188.559C307.192 188.724 307.039 188.897 306.893 189.073C286.38 191.304 269.939 207.278 266.992 227.571C262.781 229.229 257.898 228.274 254.618 224.995V224.995ZM299.206 264.809C296.128 264.809 293.233 263.61 291.056 261.433L283.474 253.851C284.067 253.941 284.666 254.012 285.275 254.049C285.321 254.051 285.367 254.054 285.413 254.056L313.543 255.247L307.357 261.433C305.18 263.61 302.285 264.809 299.206 264.809ZM343.794 297.87C341.617 300.047 338.723 301.246 335.645 301.246C332.566 301.246 329.67 300.047 327.494 297.87L317.964 288.34C315.787 286.163 314.588 283.269 314.588 280.19C314.588 277.113 315.786 274.22 317.961 272.043C317.962 272.042 317.964 272.041 317.965 272.039L333.826 256.179C333.849 256.156 333.868 256.131 333.89 256.108L383.458 258.207L343.794 297.87Z" fill="#6D41E9"/>
<path d="M509.803 102.155C506.873 99.2264 502.125 99.2254 499.196 102.155L487.913 113.439C487.885 109.321 484.541 105.989 480.416 105.989C476.273 105.989 472.915 109.348 472.915 113.49V160.835C472.915 169.684 471.398 178.392 468.407 186.718L461.94 204.723C459.208 212.329 453.722 218.529 446.494 222.18C442.797 224.048 441.313 228.558 443.181 232.256C444.5 234.869 447.141 236.376 449.881 236.376C451.018 236.376 452.172 236.117 453.256 235.569C463.925 230.181 472.023 221.027 476.059 209.794L482.526 191.789C486.103 181.831 487.917 171.417 487.917 160.835V134.65L509.805 112.763C512.732 109.834 512.732 105.084 509.803 102.155V102.155Z" fill="#6D41E9"/>
<path d="M360.653 344.882C357.728 341.95 352.979 341.944 350.047 344.87C347.115 347.796 347.109 352.544 350.034 355.477L369.199 374.686C370.664 376.154 372.586 376.889 374.509 376.889C376.425 376.889 378.342 376.159 379.806 374.699C382.739 371.773 382.744 367.025 379.819 364.092L360.653 344.882Z" fill="#6D41E9"/>
<path d="M339.166 362.646C338.453 358.566 334.568 355.837 330.488 356.547C326.407 357.259 323.676 361.144 324.388 365.225L328.533 388.973C329.17 392.617 332.336 395.185 335.913 395.185C336.341 395.185 336.775 395.148 337.211 395.072C341.292 394.36 344.023 390.475 343.311 386.394L339.166 362.646Z" fill="#6D41E9"/>
<path d="M394.116 323.392L370.368 319.247C366.282 318.533 362.402 321.266 361.689 325.346C360.977 329.427 363.708 333.312 367.788 334.024L391.536 338.169C391.973 338.245 392.407 338.282 392.835 338.282C396.411 338.282 399.578 335.714 400.215 332.07C400.926 327.989 398.196 324.104 394.116 323.392Z" fill="#6D41E9"/>
<path d="M151.351 156.838C152.816 158.307 154.738 159.041 156.661 159.041C158.577 159.041 160.494 158.311 161.958 156.851C164.891 153.925 164.896 149.177 161.971 146.245L142.806 127.035C139.881 124.103 135.132 124.096 132.2 127.022C129.267 129.948 129.262 134.696 132.187 137.628L151.351 156.838Z" fill="#6D41E9"/>
<path d="M172.836 139.073C173.473 142.717 176.639 145.285 180.216 145.285C180.644 145.285 181.078 145.248 181.514 145.172C185.595 144.46 188.326 140.575 187.614 136.494L183.469 112.745C182.756 108.665 178.869 105.935 174.791 106.646C170.71 107.358 167.979 111.243 168.691 115.324L172.836 139.073Z" fill="#6D41E9"/>
<path d="M117.888 178.326L141.636 182.472C142.073 182.548 142.507 182.585 142.935 182.585C146.511 182.585 149.678 180.017 150.315 176.373C151.027 172.293 148.296 168.408 144.216 167.695L120.468 163.549C116.382 162.836 112.502 165.568 111.789 169.648C111.077 173.728 113.808 177.613 117.888 178.326Z" fill="#6D41E9"/>
</g>
<defs>
<clipPath id="clip0">
<rect width="512" height="512" fill="white"/>
</clipPath>
</defs>
</svg>
