<svg width="496" height="487" viewBox="0 0 496 487" fill="none" xmlns="http://www.w3.org/2000/svg">
<g clip-path="url(#clip0)">
<path d="M23.992 185.864L23.992 391.104C23.992 402.136 32.96 411.104 43.992 411.104C55.024 411.104 63.992 402.136 63.992 391.104L63.992 185.864C77.76 182.288 87.992 169.864 87.992 155L87.992 58.984C87.992 54.56 84.416 50.984 79.992 50.984C75.568 50.984 71.992 54.56 71.992 58.984L71.992 122.984L63.992 122.984L63.992 58.984C63.992 54.56 60.416 50.984 55.992 50.984C51.568 50.984 47.992 54.56 47.992 58.984L47.992 122.984L39.992 122.984L39.992 58.984C39.992 54.56 36.416 50.984 31.992 50.984C27.568 50.984 23.992 54.56 23.992 58.984L23.992 122.984L15.992 122.984L15.992 58.984C15.992 54.56 12.416 50.984 7.992 50.984C3.568 50.984 -0.00799561 54.56 -0.00799561 58.984L-0.00799563 155C-0.00799563 169.864 10.224 182.288 23.992 185.864V185.864ZM47.992 391.112C47.992 393.312 46.192 395.112 43.992 395.112C41.792 395.112 39.992 393.312 39.992 391.112L39.992 187L47.992 187L47.992 391.112ZM15.992 138.984L71.992 138.984L71.992 155C71.992 163.824 64.816 171 55.992 171L31.992 171C23.168 171 15.992 163.824 15.992 155L15.992 138.984Z" fill="#6D41E9"/>
<path d="M455.984 50.904C451.56 50.904 447.984 54.48 447.984 58.904C447.984 58.952 448.008 58.984 448.008 59.024L448.008 59.032L448.008 391.112C448.008 402.144 456.976 411.112 468.008 411.112C479.04 411.112 488.008 402.144 488.008 391.112L488.008 251.064L504.008 251.064C508.432 251.064 512.008 247.488 512.008 243.064L512.008 106.92C512.008 76.032 486.872 50.904 455.984 50.904V50.904ZM472.008 391.112C472.008 393.312 470.208 395.112 468.008 395.112C465.808 395.112 464.008 393.312 464.008 391.112L464.008 251.064L472.008 251.064L472.008 391.112ZM496.008 235.064L464.008 235.064L464.008 67.72C482.24 71.448 496.008 87.608 496.008 106.92L496.008 235.064Z" fill="#6D41E9"/>
<path d="M259.992 50.888C160.744 50.888 79.992 131.64 79.992 230.888C79.992 330.136 160.744 410.888 259.992 410.888C359.24 410.888 439.992 330.136 439.992 230.888C439.992 131.64 359.24 50.888 259.992 50.888V50.888ZM259.992 394.888C169.56 394.888 95.992 321.32 95.992 230.888C95.992 140.456 169.56 66.888 259.992 66.888C350.424 66.888 423.992 140.456 423.992 230.888C423.992 321.32 350.424 394.888 259.992 394.888Z" fill="#6D41E9"/>
<path d="M259.992 106.888C191.616 106.888 135.992 162.512 135.992 230.888C135.992 299.264 191.616 354.888 259.992 354.888C328.368 354.888 383.992 299.264 383.992 230.888C383.992 162.512 328.368 106.888 259.992 106.888V106.888ZM259.992 338.888C200.44 338.888 151.992 290.44 151.992 230.888C151.992 171.336 200.44 122.888 259.992 122.888C319.544 122.888 367.992 171.336 367.992 230.888C367.992 290.44 319.544 338.888 259.992 338.888Z" fill="#6D41E9"/>
</g>
<defs>
<clipPath id="clip0">
<rect width="512" height="512" fill="white" transform="translate(0 -25)"/>
</clipPath>
</defs>
</svg>
