<svg width="512" height="512" viewBox="0 0 512 512" fill="none" xmlns="http://www.w3.org/2000/svg">
<path d="M440 368L421.22 368L403.62 328L408 328C410.122 328 412.157 327.157 413.657 325.657C415.157 324.157 416 322.122 416 320C416 317.878 415.157 315.843 413.657 314.343C412.157 312.843 410.122 312 408 312L396.58 312L389.54 296L392 296C394.122 296 396.157 295.157 397.657 293.657C399.157 292.157 400 290.122 400 288C400 285.878 399.157 283.843 397.657 282.343C396.157 280.843 394.122 280 392 280L382.5 280L375.46 264L376 264C378.122 264 380.157 263.157 381.657 261.657C383.157 260.157 384 258.122 384 256C384 253.878 383.157 251.843 381.657 250.343C380.157 248.843 378.122 248 376 248L368.42 248L361.328 231.881C363.297 231.538 365.066 230.47 366.287 228.888C367.508 227.306 368.093 225.325 367.926 223.333C367.76 221.342 366.854 219.485 365.387 218.128C363.92 216.77 361.998 216.011 360 216L354.34 216L336 174.318L336 144C335.998 142.56 335.867 141.123 335.608 139.706L445.657 29.657C446.776 28.5382 447.538 27.1127 447.847 25.5608C448.155 24.0089 447.997 22.4003 447.391 20.9385C446.786 19.4766 445.76 18.2272 444.445 17.3481C443.129 16.4691 441.582 15.9999 440 16L216 16C214.949 15.9999 213.909 16.2068 212.938 16.6089C211.968 17.0109 211.086 17.6001 210.343 18.343L191.951 36.736C187.38 32.6636 181.427 30.4909 175.308 30.6621C169.188 30.8333 163.366 33.3354 159.03 37.657L50.343 146.343L39.808 156.878C33.1221 163.564 27.8185 171.501 24.2001 180.237C20.5817 188.972 18.7194 198.335 18.7194 207.79C18.7194 217.245 20.5817 226.608 24.2001 235.343C27.8185 244.079 33.1221 252.016 39.808 258.702L117.867 336.76C120.09 338.996 122.735 340.768 125.648 341.975C128.561 343.181 131.684 343.798 134.837 343.79L160 343.79C162.121 343.792 164.154 344.636 165.654 346.136C167.154 347.636 167.998 349.669 168 351.79L168 377.373C167.992 380.526 168.609 383.649 169.815 386.562C171.022 389.475 172.794 392.12 175.03 394.343L241.539 460.853C252.656 472.031 265.88 480.893 280.445 486.926C295.01 492.959 310.627 496.043 326.392 496L456 496C466.605 495.988 476.772 491.77 484.271 484.271C491.77 476.772 495.988 466.605 496 456L496 424C495.983 409.153 490.078 394.919 479.579 384.421C469.081 373.922 454.847 368.017 440 368V368ZM440 384C450.605 384.012 460.772 388.23 468.271 395.729C475.77 403.228 479.988 413.395 480 424L480 432L383.765 432C372.204 432.031 360.752 429.77 350.07 425.346C339.389 420.922 329.692 414.423 321.539 406.226L112.253 196.94C122.447 184.18 128 168.332 128 152C128 135.668 122.447 119.82 112.253 107.06L136 83.313L136 88.24C135.964 101.901 138.637 115.434 143.866 128.056C149.094 140.677 156.774 152.136 166.46 161.77L206.23 201.54C215.864 211.226 227.323 218.906 239.944 224.134C252.566 229.363 266.099 232.036 279.76 232L303.9 232L310.94 248L288 248C285.878 248 283.843 248.843 282.343 250.343C280.843 251.843 280 253.878 280 256C280 258.122 280.843 260.157 282.343 261.657C283.843 263.157 285.878 264 288 264L317.98 264L325.02 280L304 280C301.878 280 299.843 280.843 298.343 282.343C296.843 283.843 296 285.878 296 288C296 290.122 296.843 292.157 298.343 293.657C299.843 295.157 301.878 296 304 296L332.06 296L339.1 312L320 312C317.878 312 315.843 312.843 314.343 314.343C312.843 315.843 312 317.878 312 320C312 322.122 312.843 324.157 314.343 325.657C315.843 327.157 317.878 328 320 328L346.14 328L360.268 360.11C363.396 367.214 368.522 373.256 375.023 377.497C381.524 381.739 389.119 383.999 396.881 384L440 384ZM403.74 368L396.881 368C392.224 367.999 387.667 366.644 383.766 364.098C379.866 361.553 376.79 357.929 374.913 353.666L363.62 328L386.14 328L403.74 368ZM379.1 312L356.58 312L349.54 296L372.06 296L379.1 312ZM365.02 280L342.5 280L335.46 264L357.98 264L365.02 280ZM328.42 248L321.38 232L343.9 232L350.94 248L328.42 248ZM314.34 216L300.26 184L322.78 184L336.86 216L314.34 216ZM320 168L282.51 168C281.67 168 280.834 167.976 280 167.939L280 144C280.002 141.879 280.846 139.846 282.346 138.346C283.846 136.846 285.879 136.002 288 136L312 136C314.121 136.002 316.154 136.846 317.654 138.346C319.154 139.846 319.998 141.879 320 144L320 168ZM219.313 32L420.687 32L327.225 125.462C322.94 121.926 317.556 119.995 312 120L288 120C281.637 120.007 275.537 122.538 271.037 127.037C266.538 131.537 264.007 137.637 264 144L264 164.874C256.06 162.096 248.85 157.558 242.912 151.6L216.402 125.09C211.185 119.902 207.05 113.73 204.234 106.933C201.419 100.136 199.98 92.8473 200 85.49L200 54.627C199.998 53.5877 199.93 52.5495 199.795 51.519L219.313 32ZM170.343 48.97C171.462 47.8511 172.887 47.0891 174.439 46.7804C175.991 46.4717 177.6 46.6301 179.061 47.2357C180.523 47.8412 181.773 48.8666 182.652 50.1823C183.531 51.4979 184 53.0447 184 54.627L184 85.49C183.974 94.9487 185.825 104.319 189.445 113.057C193.064 121.796 198.381 129.73 205.088 136.4L231.598 162.91C238.268 169.617 246.202 174.935 254.941 178.555C263.681 182.175 273.051 184.026 282.51 184L282.78 184L296.86 216L279.76 216C268.2 216.032 256.749 213.77 246.069 209.347C235.389 204.924 225.692 198.426 217.54 190.23L177.77 150.46C169.574 142.308 163.076 132.611 158.653 121.931C154.23 111.251 151.968 99.7998 152 88.24L152 67.313L170.343 48.97ZM100.856 118.457C108.091 128.144 112 139.91 112 152C112 164.09 108.091 175.856 100.856 185.543L67.313 152L100.856 118.457ZM456 480L432 480L432 472C432 469.878 431.157 467.843 429.657 466.343C428.157 464.843 426.122 464 424 464C421.878 464 419.843 464.843 418.343 466.343C416.843 467.843 416 469.878 416 472L416 480L368 480L368 472C368 469.878 367.157 467.843 365.657 466.343C364.157 464.843 362.122 464 360 464C357.878 464 355.843 464.843 354.343 466.343C352.843 467.843 352 469.878 352 472L352 480L326.392 480C301.956 480.069 278.287 471.465 259.6 455.719L277.66 437.66C279.161 436.159 280.004 434.123 280.004 432C280.004 429.877 279.161 427.841 277.66 426.34C276.159 424.839 274.123 423.996 272 423.996C269.877 423.996 267.841 424.839 266.34 426.34L248 444.683L211.317 408L229.66 389.66C231.161 388.159 232.004 386.123 232.004 384C232.004 381.877 231.161 379.841 229.66 378.34C228.159 376.839 226.123 375.996 224 375.996C221.877 375.996 219.841 376.839 218.34 378.34L200 396.683L186.343 383.03C185.598 382.289 185.007 381.407 184.605 380.436C184.203 379.465 183.997 378.424 184 377.373L184 351.79C183.993 345.427 181.462 339.327 176.963 334.827C172.463 330.328 166.363 327.797 160 327.79L134.837 327.79C133.786 327.793 132.745 327.587 131.774 327.185C130.803 326.783 129.921 326.192 129.18 325.447L99.527 295.793L117.66 277.66C119.161 276.159 120.004 274.123 120.004 272C120.004 269.877 119.161 267.841 117.66 266.34C116.159 264.839 114.123 263.996 112 263.996C109.877 263.996 107.841 264.839 106.34 266.34L88.207 284.473L51.527 247.793L69.66 229.66C71.1611 228.159 72.0044 226.123 72.0044 224C72.0044 221.877 71.1611 219.841 69.66 218.34C68.1589 216.839 66.1229 215.996 64 215.996C61.8771 215.996 59.8411 216.839 58.34 218.34L41.733 234.947C35.8423 224.308 33.5725 212.042 35.2662 200C36.9599 187.957 42.5252 176.793 51.122 168.192L56 163.313L310.226 417.539C319.861 427.227 331.321 434.907 343.944 440.136C356.567 445.364 370.102 448.037 383.765 448L480 448L480 456C479.993 462.363 477.462 468.463 472.963 472.963C468.463 477.462 462.363 479.993 456 480Z" fill="#6D41E9"/>
<path d="M24 352L96 352C98.1217 352 100.157 351.157 101.657 349.657C103.157 348.157 104 346.122 104 344C104 341.878 103.157 339.843 101.657 338.343C100.157 336.843 98.1217 336 96 336L24 336C21.8783 336 19.8434 336.843 18.3431 338.343C16.8429 339.843 16 341.878 16 344C16 346.122 16.8429 348.157 18.3431 349.657C19.8434 351.157 21.8783 352 24 352V352Z" fill="#6D41E9"/>
<path d="M192 432L24 432C21.8783 432 19.8434 432.843 18.3431 434.343C16.8429 435.843 16 437.878 16 440C16 442.122 16.8429 444.157 18.3431 445.657C19.8434 447.157 21.8783 448 24 448L192 448C194.122 448 196.157 447.157 197.657 445.657C199.157 444.157 200 442.122 200 440C200 437.878 199.157 435.843 197.657 434.343C196.157 432.843 194.122 432 192 432Z" fill="#6D41E9"/>
<path d="M24 400L144 400C146.122 400 148.157 399.157 149.657 397.657C151.157 396.157 152 394.122 152 392C152 389.878 151.157 387.843 149.657 386.343C148.157 384.843 146.122 384 144 384L24 384C21.8783 384 19.8434 384.843 18.3431 386.343C16.8429 387.843 16 389.878 16 392C16 394.122 16.8429 396.157 18.3431 397.657C19.8434 399.157 21.8783 400 24 400V400Z" fill="#6D41E9"/>
</svg>
