<svg width="512" height="512" viewBox="0 0 512 512" fill="none" xmlns="http://www.w3.org/2000/svg">
<g clip-path="url(#clip0)">
<path d="M504.5 379.316L456.38 379.316C442.856 349.824 408.4 328.807 368.128 328.807C327.856 328.807 293.4 349.824 279.876 379.316L232.128 379.316C218.603 349.825 184.145 328.809 143.87 328.809C141.36 328.809 138.888 328.889 136.521 329.046C132.388 329.32 129.26 332.895 129.536 337.027C129.81 341.161 133.383 344.283 137.517 344.012C139.553 343.876 141.691 343.808 143.87 343.808C187.641 343.808 223.25 372.163 223.25 407.018C223.25 441.873 187.641 470.229 143.87 470.229C100.105 470.229 64.5 441.873 64.5 407.018C64.5 383.867 80.423 362.578 106.055 351.459C109.855 349.811 111.6 345.394 109.951 341.594C108.304 337.794 103.885 336.052 100.086 337.698C79.188 346.763 63.603 361.677 55.581 379.315L7.5 379.315C3.357 379.315 -1.28751e-08 382.672 -1.38653e-08 386.815L-2.35234e-08 427.221C-2.45136e-08 431.364 3.357 434.721 7.5 434.721L55.621 434.721C69.145 464.213 103.599 485.229 143.87 485.229C184.145 485.229 218.602 464.213 232.128 434.721L279.876 434.721C293.4 464.213 327.856 485.229 368.128 485.229C408.4 485.229 442.856 464.213 456.38 434.721L504.5 434.721C508.643 434.721 512 431.364 512 427.221L512 386.815C512 382.674 508.643 379.316 504.5 379.316V379.316ZM15 419.723L15 394.317L50.748 394.317C49.931 398.472 49.5 402.716 49.5 407.02C49.5 411.345 49.933 415.587 50.751 419.723L15 419.723ZM236.999 419.723C237.818 415.587 238.25 411.345 238.25 407.02C238.25 402.695 237.817 398.453 236.998 394.317L275.005 394.317C274.186 398.453 273.754 402.695 273.754 407.02C273.754 411.345 274.187 415.587 275.005 419.723L236.999 419.723ZM368.128 470.23C324.361 470.23 288.754 441.874 288.754 407.019C288.754 372.164 324.361 343.807 368.128 343.807C411.895 343.807 447.502 372.163 447.502 407.019C447.502 441.874 411.895 470.23 368.128 470.23V470.23ZM497 419.723L461.25 419.723C462.069 415.587 462.501 411.345 462.501 407.02C462.501 402.695 462.068 398.453 461.25 394.317L497 394.317L497 419.723Z" fill="#6D41E9"/>
<path d="M77.71 324.61C82.499 324.61 87.303 323.487 91.617 321.356C95.943 319.207 99.751 316.044 102.621 312.221C117.656 292.256 162.701 245.82 256 245.82C349.299 245.82 394.344 292.257 409.377 312.219C415.215 319.978 424.528 324.61 434.29 324.61C442.639 324.61 450.485 321.362 456.39 315.457C462.285 309.55 465.531 301.705 465.531 293.37L465.531 238.03C465.531 195.662 452.854 154.631 428.872 119.372C426.543 115.947 421.877 115.059 418.453 117.389C415.028 119.718 414.14 124.383 416.47 127.808C438.753 160.569 450.532 198.683 450.532 238.031L450.532 293.371C450.532 297.706 448.842 301.788 445.778 304.857C442.714 307.922 438.633 309.611 434.292 309.611C429.218 309.611 424.385 307.215 421.363 303.199C410.004 288.117 383.013 259.18 334.213 242.834L334.213 58.47C356.708 68.574 377.385 83.096 395.229 101.631C398.103 104.615 402.851 104.707 405.833 101.833C408.817 98.96 408.908 94.213 406.035 91.229C386.62 71.06 363.928 55.201 338.588 44.089C312.376 32.596 284.59 26.77 255.988 26.77C255.866 26.77 255.741 26.77 255.618 26.77C199.73 26.871 147.204 48.71 107.715 88.268C68.22 127.828 46.47 180.4 46.47 236.3L46.47 293.37C46.47 310.596 60.484 324.61 77.71 324.61V324.61ZM255.644 41.77L255.987 41.77C277.83 41.77 299.118 45.442 319.212 52.484L319.212 238.412C300.89 233.716 279.909 230.821 256.001 230.821C232.094 230.821 211.112 233.716 192.79 238.412L192.79 52.329C212.512 45.528 233.655 41.809 255.644 41.77V41.77ZM61.47 236.3C61.47 156.903 109.373 88.409 177.789 58.221L177.789 242.834C128.988 259.181 101.995 288.119 90.632 303.207C89.153 305.179 87.185 306.81 84.959 307.915C82.714 309.024 80.207 309.61 77.71 309.61C68.755 309.61 61.47 302.325 61.47 293.37L61.47 236.3Z" fill="#6D41E9"/>
<path d="M410.811 373.888C399.121 365.661 383.963 361.13 368.13 361.13C352.297 361.13 337.14 365.661 325.449 373.888C313.139 382.551 306.08 394.627 306.08 407.02C306.08 419.413 313.14 431.49 325.449 440.153C337.139 448.38 352.297 452.911 368.13 452.911C372.459 452.911 376.794 452.566 381.014 451.886C385.104 451.227 387.884 447.377 387.225 443.288C386.566 439.198 382.721 436.413 378.627 437.077C375.193 437.631 371.661 437.911 368.13 437.911C343.067 437.911 321.08 423.476 321.08 407.02C321.08 390.565 343.066 376.13 368.13 376.13C393.194 376.13 415.18 390.565 415.18 407.02C415.18 414.855 410.297 420.945 406.201 424.674C403.138 427.462 402.916 432.206 405.704 435.269C408.493 438.332 413.235 438.554 416.299 435.766C425.25 427.617 430.18 417.408 430.18 407.02C430.18 394.627 423.12 382.551 410.811 373.888V373.888Z" fill="#6D41E9"/>
<path d="M81.823 407.02C81.823 419.412 88.883 431.487 101.193 440.149C112.882 448.376 128.04 452.906 143.872 452.906C159.704 452.906 174.86 448.376 186.551 440.149C198.861 431.487 205.921 419.412 205.921 407.02C205.921 394.628 198.86 382.553 186.551 373.89C174.861 365.663 159.704 361.133 143.872 361.133C128.04 361.133 112.883 365.663 101.193 373.89C88.883 382.553 81.823 394.628 81.823 407.02V407.02ZM143.872 376.133C168.935 376.133 190.921 390.566 190.921 407.02C190.921 423.473 168.936 437.906 143.872 437.906C118.808 437.906 96.823 423.473 96.823 407.02C96.823 390.565 118.809 376.133 143.872 376.133Z" fill="#6D41E9"/>
</g>
<defs>
<clipPath id="clip0">
<rect width="512" height="512" fill="white"/>
</clipPath>
</defs>
</svg>
