<svg id="Layer_5" enable-background="new 0 0 64 64" height="512" viewBox="0 0 64 64" width="512" xmlns="http://www.w3.org/2000/svg" xmlns:xlink="http://www.w3.org/1999/xlink"><linearGradient id="SVGID_1_" gradientUnits="userSpaceOnUse" x1="32" x2="32" y1="63.006" y2="1"><stop offset="0" stop-color="#9f2fff"/><stop offset="1" stop-color="#0bb1d3"/></linearGradient><path d="m30.463 37.107-1.836.795-.795-1.835 1.836-.795zm-2.386-5.504-1.836.795.795 1.835 1.836-.795zm1.345 8.134.72 1.66 1.836-.795-.72-1.66zm11.578-22.737v2h4.762l3.326 7.419 1.824-.818-3.855-8.601zm-40-9v-1h1.756l.283.251c.547.483 1.243.749 1.961.749 1.654 0 3-1.346 3-3 0-.718-.266-1.414-.749-1.961l-.251-.283v-1.756h1c3.859 0 7 3.141 7 7s-3.141 7-7 7-7-3.141-7-7zm2.296 1.695c.696 1.925 2.542 3.305 4.704 3.305 2.757 0 5-2.243 5-5 0-2.162-1.38-4.008-3.305-4.704.201.542.305 1.118.305 1.704 0 2.757-2.243 5-5 5-.586 0-1.162-.104-1.704-.305zm56.171 9.06c.344.683.536 1.448.536 2.245l-.002.107c-.03 2.485-2.026 4.543-4.552 4.834l7.551 16.845v2.214h-8.59c.357.994.59 2.011.59 3.049 0 1.674-.434 3.116-1.238 4.299l8.945 8.945-1.414 1.414-8.883-8.883c-.431.351-.912.662-1.442.932l4.84 6.656-1.617 1.176-5.159-7.095c-.93.256-1.957.417-3.075.477l.043 7.024-2 .012-.043-7.043c-.926-.067-1.804-.233-2.627-.476l-4.486 7.05-1.688-1.074 4.278-6.724c-.61-.313-1.169-.677-1.671-1.089l-9.057 9.057-1.414-1.414 9.094-9.094c-.879-1.195-1.386-2.605-1.386-4.15 0-1.159.287-2.155.703-3.049h-34.703v-2.214l13.353-29.786h16.749c.181-.887.611-1.678 1.194-2.327-.191-.535-.296-1.101-.296-1.673 0-2.757 2.243-5 5-5 .471 0 .918.086 1.35.209.726-1.889 2.537-3.209 4.65-3.209 1.236 0 2.42.464 3.328 1.277 1.048-.821 2.339-1.277 3.672-1.277 2.334 0 4.355 1.342 5.347 3.292.529-.185 1.084-.292 1.653-.292 2.757 0 5 2.243 5 5 0 .566-.1 1.124-.298 1.664.832.914 1.298 2.095 1.298 3.336 0 2.243-1.495 4.124-3.533 4.755zm-33.999 24.245h1.008l-10.476-24.176v1.176c0 7.504 2.646 14.812 7.451 20.578zm-3.554-1.142c-3.334-4-5.681-8.702-6.914-13.703-1.233 5-3.58 9.703-6.914 13.704l-.951 1.141h15.73zm-18.818 1.142h1.436l2.017-2.421c4.805-5.767 7.451-13.075 7.451-20.579v-1.325zm37.216 9.939c-.193-.513-.312-1.061-.312-1.64 0-1.063.366-2.107 1.031-2.938l3.969-4.962 3.97 4.962c.664.83 1.03 1.874 1.03 2.938 0 .677-.15 1.317-.409 1.9 1.877-.787 3.409-2.298 3.409-5.15 0-2.513-1.806-5.197-3.398-7.565-1.001-1.489-1.904-2.832-2.335-4.068-1.201.611-3.097 1.833-3.893 3.744.373.508.626 1.119.626 1.84v1h-2v-1c0-.615-.616-1.143-1.237-1.508-.354 1.085-1.056 2.043-1.741 2.978-1.04 1.421-2.022 2.762-2.022 4.579 0 2.074 1.282 3.833 3.312 4.89zm5.057 1.054c1.456-.038 2.631-1.229 2.631-2.694 0-.611-.21-1.211-.592-1.688l-2.408-3.01-2.407 3.011c-.383.476-.593 1.076-.593 1.687 0 1.443 1.141 2.616 2.567 2.688.128.004.254.013.384.013.134 0 .276-.004.418-.007zm15.535-10.993-12.551-28h-31.829l12.133 28h8.239c.171-.242.343-.48.512-.711.855-1.167 1.592-2.175 1.592-3.24v-1.366l1.302.413c.064.021.746.242 1.507.698 1.74-3.296 5.682-4.677 5.868-4.74l1.323-.452v1.398c0 1.005 1.149 2.714 2.262 4.367.772 1.147 1.58 2.366 2.253 3.633zm.096-29c0-.896-.411-1.742-1.129-2.321l-.649-.524.399-.732c.251-.462.379-.941.379-1.423 0-1.654-1.346-3-3-3-.367 0-.723.073-1.06.201.036.262.06.527.06.799 0 3.309-2.691 6-6 6v-2c2.206 0 4-1.794 4-4s-1.794-4-4-4c-1.146 0-2.205.485-2.983 1.365l-.837.947-.73-1.033c-.564-.8-1.48-1.279-2.45-1.279-1.346 0-2.498.886-2.871 2.132 1.132.918 1.871 2.301 1.871 3.868h-2c0-1.654-1.346-3-3-3s-3 1.346-3 3c0 .136.031.265.049.397.6-.255 1.259-.397 1.951-.397v2c-1.302 0-2.402.839-2.816 2h16.463l4.931 11h.27c1.719 0 3.133-1.325 3.153-2.955.001-1.309-.798-2.444-1.986-2.87l.674-1.883c.479.172.917.415 1.311.711v-.003c1.654 0 3-1.346 3-3zm-24 5h2v-2h-2zm-4 0h2v-2h-2z" fill="url(#SVGID_1_)"/></svg>