<svg width="508" height="474" viewBox="0 0 508 474" fill="none" xmlns="http://www.w3.org/2000/svg">
<path d="M398.616 449.192C395.498 446.465 390.761 446.784 388.033 449.901L357.112 485.265C353.837 489.014 349.291 491.171 344.313 491.339C339.321 491.517 334.653 489.663 331.132 486.146L307.301 462.325V446.572C307.301 442.43 303.944 439.072 299.801 439.072C295.658 439.072 292.301 442.43 292.301 446.572V465.393V465.47V504.5C292.301 508.642 295.658 512 299.801 512C303.944 512 307.301 508.642 307.301 504.5V483.534L320.529 496.756C326.667 502.888 335.066 506.349 343.722 506.349C353.128 506.349 362.219 502.222 368.406 495.137L399.326 459.775C402.053 456.656 401.734 451.918 398.616 449.192V449.192ZM87.138 439.072C82.995 439.072 79.638 442.43 79.638 446.572V504.5C79.638 508.642 82.995 512 87.138 512C91.281 512 94.638 508.642 94.638 504.5V446.572C94.638 442.43 91.28 439.072 87.138 439.072ZM502.501 118.902L452.23 78.056C448.753 75.232 444.082 74.672 440.036 76.598C435.991 78.523 433.478 82.502 433.478 86.982V183.383C433.478 183.397 433.481 183.41 433.481 183.424V305.07L357.965 391.196L334.042 346.531C322.624 325.198 301.549 310.121 277.663 306.199C267.813 304.582 244.822 300.823 236.537 299.46C230.345 298.441 225.849 293.151 225.849 286.88V278.017C231.693 274.332 237.18 269.99 242.184 264.982C259.767 247.388 269.45 224.005 269.45 199.14V195.88H272.34C287.179 195.948 299.8 183.329 299.8 168.42C299.8 160.51 296.326 153.158 290.692 148.05C295.052 141.831 296.288 133.659 293.807 126.484C291.665 120.291 287.002 115.214 281.014 112.556C280.227 112.206 279.432 111.87 278.64 111.528V57.54C278.64 25.813 252.827 0 221.1 0H131.61C99.883 0 74.07 25.813 74.07 57.54V111.528C73.28 111.87 72.488 112.206 71.701 112.555C65.712 115.214 61.049 120.291 58.907 126.485C56.394 133.753 57.628 141.799 62.008 148.059C56.379 153.163 52.91 160.51 52.91 168.42C52.91 183.289 65.386 195.965 80.38 195.88H83.27V199.14C83.27 232.307 100.698 261.474 126.871 277.974V288.41C126.871 294.172 122.96 299.163 117.365 300.548L55.085 315.908C24.859 323.363 3.75 350.311 3.75 381.44V504.5C3.75 508.642 7.107 512 11.25 512C15.393 512 18.75 508.642 18.75 504.5V381.44C18.75 357.229 35.168 336.27 58.676 330.472L106.918 318.575C121.833 342.494 147.926 357.124 176.357 357.124C205.857 357.124 232.487 341.655 247.131 316.396L275.235 321.001C294.546 324.172 311.586 336.362 320.818 353.611L345.025 398.805C347.278 403.021 351.461 405.864 356.213 406.41C360.973 406.956 365.695 405.132 368.849 401.534L420.214 342.952L452.84 375.59C452.871 375.62 452.904 375.646 452.935 375.676L411.111 423.509C408.384 426.627 408.703 431.365 411.821 434.092C414.928 436.809 419.668 436.511 422.404 433.383L491.337 354.547C505.446 338.543 502.972 312.949 486.452 299.743C475.354 290.871 460.821 289.18 448.48 294.154V186.95L502.501 143.058C506.154 140.089 508.25 135.687 508.25 130.979C508.25 126.272 506.154 121.87 502.501 118.902V118.902ZM284.8 168.42C284.8 175.18 279.105 180.914 272.34 180.88H269.45V158.12C272.297 158.324 275.129 158.012 277.827 157.228C282.017 159.295 284.8 163.637 284.8 168.42V168.42ZM83.27 180.88H80.38C73.576 180.915 67.91 175.189 67.91 168.42C67.91 163.641 70.686 159.307 74.865 157.243C77.564 158.027 80.441 158.346 83.269 158.138V180.88H83.27ZM85.127 142.45C80.83 144.355 75.853 142.491 73.617 138.324C71.261 133.934 73.237 128.286 77.787 126.266C119.005 107.97 164.422 101.514 209.141 107.599C213.238 108.152 217.025 105.283 217.583 101.179C218.142 97.075 215.267 93.295 211.162 92.736C169.89 87.12 128.051 91.572 89.069 105.594V57.54C89.069 34.083 108.152 15 131.609 15H221.1C244.557 15 263.64 34.083 263.64 57.54V105.591C257.899 103.527 252.088 101.664 246.244 100.02C242.261 98.9 238.115 101.221 236.993 105.208C235.871 109.195 238.194 113.337 242.181 114.459C253.322 117.594 264.339 121.566 274.927 126.265C279.439 128.268 281.427 133.921 279.113 138.293C276.917 142.441 271.988 144.399 267.586 142.449C211.618 117.665 141.84 117.306 85.127 142.45V142.45ZM98.27 199.14V153.205C148.312 133.191 204.412 133.192 254.451 153.208V199.14C254.451 220 246.327 239.618 231.576 254.378C216.945 269.019 197.234 277.259 176.361 277.259C133.301 277.26 98.27 242.215 98.27 199.14V199.14ZM176.357 342.124C154.795 342.124 134.881 331.813 122.389 314.693C134.617 310.895 143.097 298.664 141.87 285.631C152.542 289.905 164.181 292.26 176.36 292.26C188.369 292.26 200.021 289.981 210.849 285.663C210.081 298.584 218.984 310.254 231.136 313.601C218.735 331.406 198.541 342.124 176.357 342.124V342.124ZM477.083 311.455C487.134 319.489 488.617 334.968 480.044 344.673L462.828 364.362L430.126 331.649L445.361 314.274C453.502 304.981 467.439 303.747 477.083 311.455ZM493.042 131.416L448.48 167.623L448.477 94.335L493.041 130.544C493.268 130.685 493.274 131.27 493.042 131.416ZM217.652 193.459C221.795 193.459 225.152 190.101 225.152 185.959V169.435C225.152 165.293 221.795 161.935 217.652 161.935C213.509 161.935 210.152 165.293 210.152 169.435V185.959C210.152 190.102 213.51 193.459 217.652 193.459ZM135.062 161.936C130.919 161.936 127.562 165.294 127.562 169.436V185.96C127.562 190.102 130.919 193.46 135.062 193.46C139.205 193.46 142.562 190.102 142.562 185.96V169.436C142.562 165.293 139.204 161.936 135.062 161.936ZM199.45 230.757C197.458 227.127 192.901 225.797 189.267 227.789C186.451 229.334 181.863 231.151 176.076 231.102C170.521 231.044 166.142 229.269 163.447 227.789C159.812 225.796 155.256 227.124 153.263 230.756C151.27 234.388 152.599 238.946 156.23 240.94C160.43 243.245 167.255 246.011 175.919 246.102C184.672 246.193 192.155 243.314 196.482 240.941C200.114 238.948 201.442 234.389 199.45 230.757V230.757Z" fill="#6D41E9"/>
</svg>
