<svg width="1440" height="894" viewBox="0 0 1440 894" fill="none" xmlns="http://www.w3.org/2000/svg">
<g clip-path="url(#clip0)">
<path d="M1441.18 185.396L1381.08 170.436C1320.98 154.317 1200.79 126.134 1080.89 141.403C960.984 156.673 841.404 221.188 722.311 360.151C603.229 500.853 484.635 716.002 365.149 795.002C245.664 874.001 125.249 811.057 65.0553 781.612L4.85367 751.009L6.0671 936.405L66.0658 936.012C126.065 935.62 246.062 934.834 366.059 934.049C486.057 933.263 606.054 932.478 726.052 931.693C846.049 930.907 966.047 930.122 1086.04 929.336C1206.04 928.551 1326.04 927.766 1386.04 927.373L1446.04 926.98L1441.18 185.396Z" fill="#F3F4F5"/>
</g>
<defs>
<clipPath id="clip0">
<rect width="1440" height="927" fill="white" transform="translate(1446.04 926.98) rotate(179.625)"/>
</clipPath>
</defs>
</svg>
